<svg width="31" height="31" viewBox="0 0 31 31" fill="none" xmlns="http://www.w3.org/2000/svg">
<path d="M30.3004 17.2364C30.6602 17.5907 30.6449 17.7832 30.2927 18.1234C29.0896 19.2893 27.9083 20.487 26.7238 21.677C26.5215 21.8804 26.3749 22.0368 26.0872 21.747C22.5253 18.1559 18.9567 14.572 15.3816 10.9954C13.2021 8.83419 11.0216 6.67403 8.8399 4.51497C8.6299 4.30825 8.65396 4.16825 8.85193 3.9681C10.1229 2.70955 11.3876 1.44409 12.6461 0.17169C12.8802 -0.065654 13.0235 -0.0240916 13.2357 0.190283C14.7866 1.76237 16.3434 3.33007 17.906 4.89341C18.3293 5.30247 18.7504 5.71481 19.1769 6.1195C19.3476 6.28138 19.4799 6.5045 19.7555 6.51434C21.8665 4.40851 23.9759 2.30086 26.084 0.191377C26.3191 -0.0448726 26.4679 -0.0776853 26.7216 0.179346C27.9324 1.40435 29.1519 2.62169 30.3933 3.81606C30.716 4.12559 30.6832 4.29294 30.3835 4.58825C28.4016 6.54278 26.4515 8.52575 24.4586 10.4726C24.0485 10.8718 24.0955 11.0676 24.4761 11.4406C26.4307 13.3579 28.3469 15.3168 30.3004 17.2364ZM15.234 19.635C15.2131 19.5962 15.1886 19.5596 15.1607 19.5256C11.6308 15.995 8.10198 12.4625 4.57427 8.92825C4.30521 8.65919 4.1488 8.66466 3.8863 8.92825C2.6963 10.1434 1.49865 11.352 0.276927 12.5376C-0.0708854 12.8723 -0.0249481 13.0528 0.293333 13.3667C2.24349 15.2917 4.16083 17.2484 6.11755 19.1636C6.51349 19.5529 6.50037 19.764 6.1099 20.1479C4.14115 22.0839 2.2074 24.0559 0.24849 26.0028C-0.0380729 26.2872 -0.114635 26.4578 0.22224 26.7848C1.44286 27.9693 2.63724 29.1801 3.81958 30.404C4.10396 30.6993 4.25708 30.695 4.54474 30.404C5.88787 29.031 7.24557 27.6715 8.61787 26.3254C9.36741 25.5176 10.1601 24.7508 10.9924 24.0286L12.7096 25.7392C14.2649 27.2996 15.8188 28.8618 17.3711 30.4259C17.5899 30.6447 17.7507 30.6523 17.9727 30.4259C19.2298 29.1579 20.4927 27.8961 21.7615 26.6404C21.9638 26.4403 21.966 26.3003 21.7615 26.0936C19.5813 23.9476 17.4054 21.7948 15.234 19.635Z" fill="url(#paint0_linear_51_1404)"/>
<defs>
<linearGradient id="paint0_linear_51_1404" x1="2.01271" y1="28.6004" x2="28.5963" y2="2.01684" gradientUnits="userSpaceOnUse">
<stop stop-color="#7ECEFD"/>
<stop offset="1" stop-color="#56B1FC"/>
</linearGradient>
</defs>
</svg>
