<svg width="33" height="26" viewBox="0 0 33 26" fill="none" xmlns="http://www.w3.org/2000/svg">
<path d="M7.18606 0.394999H12.6736V15.7766C12.6736 22.7081 9.35124 25.1278 4.04362 25.1278C2.74451 25.1278 1.08259 24.9113 0 24.5499L0.614443 20.1084C1.37226 20.3615 2.34805 20.5414 3.43064 20.5414C5.74212 20.5414 7.18606 19.494 7.18606 15.74V0.394999ZM17.4385 19.099C18.8824 19.8568 21.1939 20.616 23.5405 20.616C26.0685 20.616 27.4042 19.5686 27.4042 17.9447C27.4042 16.4642 26.2484 15.5615 23.324 14.5506C19.2804 13.1067 16.609 10.8683 16.609 7.29286C16.609 3.14098 20.1113 0 25.8154 0C28.595 0 30.5817 0.541295 32.0257 1.22742L30.7982 5.6324C29.859 5.16279 28.0903 4.47666 25.7437 4.47666C23.3606 4.47666 22.2048 5.59583 22.2048 6.82325C22.2048 8.37545 23.5405 9.06158 26.718 10.289C31.0148 11.8778 33 14.1161 33 17.5819C33 21.6621 29.8956 25.1278 23.2157 25.1278C20.4361 25.1278 17.6916 24.37 16.3193 23.6107L17.4385 19.099Z" fill="#F0DB4F"/>
</svg>
