<svg width="40" height="26" viewBox="0 0 40 26" fill="none" xmlns="http://www.w3.org/2000/svg">
<path d="M1.23125 25.045C1.23125 25.045 1.75875 19.8413 5.45 13.6863C9.1425 7.53129 15.4375 2.87379 20.5538 2.41504C30.7338 1.39504 39.8787 10.5213 39.8787 10.5213C39.8787 10.5213 39.5788 10.7313 39.2612 10.9963C29.275 3.61254 23.175 7.09254 21.2562 8.02504C12.465 12.9313 15.1188 25.045 15.1188 25.045H1.23375H1.23125ZM30.1712 3.40004C29.6087 3.17254 29.0463 2.96254 28.4663 2.76879L28.5363 1.60629C29.6425 1.92379 30.0825 2.13504 30.24 2.22254L30.17 3.40129L30.1712 3.40004ZM28.5 7.13004C29.0625 7.16504 29.6438 7.23504 30.2413 7.35879L30.1712 8.44879C29.5912 8.32379 29.0113 8.25504 28.4313 8.23629L28.5013 7.13004H28.5ZM21.9963 1.64129C21.4875 1.64129 20.9775 1.66004 20.4675 1.71379L20.1325 0.676289C20.7138 0.606289 21.2762 0.571289 21.82 0.571289L22.1725 1.64379H21.9975L21.9963 1.64129ZM22.8413 8.11379C23.2788 7.92129 23.7913 7.72629 24.3875 7.55129L24.775 8.71379C24.2625 8.87004 23.7537 9.08129 23.2437 9.32629L22.84 8.11379H22.8413ZM14.8588 3.48879C14.4012 3.71879 13.9613 3.98254 13.505 4.26379L12.6962 3.03254C13.1712 2.75129 13.6275 2.50754 14.0675 2.27754L14.8588 3.48879ZM18.4625 11.4013C18.7775 10.9975 19.1475 10.5938 19.55 10.2238L20.3425 11.42C19.955 11.8238 19.605 12.2288 19.305 12.67L18.4625 11.4013ZM15.9125 17.0638C16.0525 16.4313 16.2125 15.78 16.44 15.13L17.705 16.1325C17.53 16.8175 17.405 17.5038 17.3363 18.1888L15.9125 17.0638ZM8.2125 8.71254C7.7875 9.15004 7.385 9.62504 7.015 10.1L5.6625 8.94004C6.06625 8.50004 6.505 8.06004 6.9625 7.62129L8.2125 8.71129V8.71254ZM2.9 16.57C2.62 17.22 2.25 18.0825 2.0225 18.68L0 17.9425C0.175 17.4675 0.545 16.5875 0.87875 15.83L2.90125 16.57H2.9ZM15.65 21.5288L17.5475 22.2138C17.6525 23.0425 17.81 23.8138 17.9688 24.5013L15.8588 23.745C15.7713 23.2175 15.6838 22.4613 15.6488 21.53L15.65 21.5288Z" fill="#CC0000"/>
</svg>
