<svg width="32" height="21" viewBox="0 0 32 21" fill="none" xmlns="http://www.w3.org/2000/svg">
<path d="M26.0768 0.18447C27.1409 0.432018 28.1078 0.989204 28.8555 1.78572C29.2674 2.2168 29.6251 2.6966 29.9205 3.21447C29.9343 3.27072 28.003 4.56822 26.8318 5.29197C26.7893 5.32072 26.6205 5.13697 26.4293 4.85447C26.2153 4.48668 25.9116 4.17913 25.5466 3.96053C25.1815 3.74194 24.767 3.61944 24.3418 3.60447C22.9955 3.51197 22.128 4.21697 22.1343 5.39572C22.1227 5.68531 22.1887 5.97274 22.3255 6.22822C22.6218 6.84072 23.1718 7.20822 24.8993 7.95697C28.0793 9.32572 29.4443 10.2282 30.2868 11.5107C30.763 12.321 31.0563 13.2257 31.1461 14.1613C31.236 15.0969 31.1201 16.0408 30.8068 16.927C30.3761 17.8988 29.6932 18.7376 28.8289 19.3563C27.9647 19.9751 26.9505 20.3512 25.8918 20.4457C24.7664 20.5748 23.6293 20.5631 22.5068 20.4107C20.7874 20.1282 19.2035 19.303 17.9868 18.0557C17.527 17.538 17.1378 16.9618 16.8293 16.342C16.959 16.2455 17.0956 16.1586 17.238 16.082C17.4355 15.9695 18.183 15.5395 18.888 15.1307L20.168 14.3807L20.4355 14.7707C20.8861 15.415 21.4596 15.9639 22.123 16.3857C22.7931 16.7532 23.552 16.9274 24.3153 16.8888C25.0785 16.8501 25.816 16.6003 26.4455 16.167C26.7703 15.8505 26.9733 15.4298 27.019 14.9787C27.0647 14.5275 26.9502 14.0747 26.6955 13.6995C26.3505 13.2057 25.6455 12.7907 23.6418 11.922C22.0706 11.3922 20.6395 10.514 19.4555 9.35322C18.8917 8.71068 18.4753 7.95253 18.2355 7.13197C18.0583 6.1972 18.0321 5.24003 18.158 4.29697C18.3933 3.21177 18.9564 2.22512 19.7712 1.47071C20.586 0.716306 21.613 0.230621 22.713 0.07947C23.8332 -0.0543851 24.9671 -0.0189896 26.0768 0.18447ZM15.648 2.03822L15.6618 3.85572H9.87429V20.2907H5.79304V3.85947H0.00553964V2.07447C-0.00985262 1.46318 0.00683694 0.851507 0.0555396 0.241969C0.0767896 0.213219 3.59554 0.199469 7.86179 0.206969L15.6255 0.228219L15.648 2.03822Z" fill="#007ACC"/>
</svg>
