<svg width="36" height="36" viewBox="0 0 36 36" fill="none" xmlns="http://www.w3.org/2000/svg">
<g clip-path="url(#clip0_53_1542)">
<path d="M18 34.5L6.225 31.275L3.75 3H32.25L29.775 31.275L18 34.5ZM9 28.95L18 31.425L27 28.95L28.95 6H7.05L9 28.95Z" fill="white"/>
<path d="M10.5 9.75H25.5L24.15 25.725L17.925 27.75L11.625 26.175L10.95 20.775H14.325V23.475L17.925 24.15L21.225 23.475V19.425H10.95L10.725 16.05C11.0332 15.7689 11.4329 15.609 11.85 15.6C17.025 15.6 21.225 16.05 21.225 16.05V13.35H10.95L10.5 9.75Z" fill="white"/>
</g>
<defs>
<clipPath id="clip0_53_1542">
<rect width="36" height="36" fill="white"/>
</clipPath>
</defs>
</svg>
