<svg width="800" height="800" viewBox="0 0 800 800" fill="none" xmlns="http://www.w3.org/2000/svg">
<g clip-path="url(#clip0_48_15)">
<rect x="87" y="121" width="626" height="558" fill="white"/>
<path fill-rule="evenodd" clip-rule="evenodd" d="M727.479 0H72.5215C32.4699 0 0 32.4699 0 72.5215V727.479C0 767.53 32.4699 800 72.5215 800H727.479C767.53 800 800 767.53 800 727.479V72.5215C800 32.4699 767.53 0 727.479 0ZM267.36 251.703C293.954 251.703 316.23 230.858 316.23 203.54C316.23 176.24 293.954 155.4 267.36 155.4C240.766 155.4 218.494 176.24 218.494 203.54C218.494 230.858 240.766 251.703 267.36 251.703ZM166.027 509.579C163.158 521.797 161.715 534.991 161.715 545.754C161.715 588.164 184.712 616.318 233.585 616.318C274.118 616.318 306.976 592.245 330.634 553.382L316.188 611.361H396.673L442.673 426.864C454.17 380.148 476.449 355.903 510.23 355.903C536.821 355.903 553.351 372.44 553.351 399.74C553.351 407.652 552.63 416.266 549.757 425.612L526.037 510.415C522.443 522.633 521.012 534.861 521.012 546.349C521.012 586.609 544.724 616.057 594.312 616.057C636.715 616.057 670.491 588.761 689.179 523.358L657.561 511.149C641.746 554.967 628.091 562.888 617.312 562.888C606.53 562.888 600.779 555.706 600.779 541.34C600.779 534.873 602.221 527.694 604.373 519.052L627.376 436.43C633.121 417.03 635.282 399.827 635.282 384.021C635.282 322.215 597.906 289.961 552.63 289.961C510.23 289.961 467.106 328.206 445.552 368.458L461.358 296.209H338.467L321.215 359.845H378.712L343.309 501.597C315.503 563.403 264.43 564.406 258.021 562.969C247.497 560.597 240.767 556.6 240.767 542.924C240.767 535.034 242.203 523.7 245.797 510.033L299.703 296.209H163.158L145.906 359.845H202.679L166.027 509.579Z" fill="#FF2A63"/>
</g>
<defs>
<clipPath id="clip0_48_15">
<rect width="800" height="800" fill="white"/>
</clipPath>
</defs>
</svg>
