<svg width="36" height="27" viewBox="0 0 36 27" fill="none" xmlns="http://www.w3.org/2000/svg">
<path d="M7.83934 0.424429H13.8258V16.952C13.8258 24.4 10.2014 27 4.41122 27C2.99401 27 1.18101 26.7673 0 26.3791L0.670301 21.6066C1.49701 21.8786 2.56151 22.0719 3.74252 22.0719C6.26413 22.0719 7.83934 20.9464 7.83934 16.9127V0.424429ZM19.0238 20.5219C20.599 21.3362 23.1206 22.1521 25.6805 22.1521C28.4384 22.1521 29.8955 21.0265 29.8955 19.2817C29.8955 17.6908 28.6347 16.7209 25.4443 15.6347C21.0331 14.0832 18.1189 11.6781 18.1189 7.83622C18.1189 3.375 21.9396 0 28.1623 0C31.1946 0 33.3619 0.581625 34.9371 1.31887L33.5981 6.05205C32.5735 5.54745 30.644 4.8102 28.0841 4.8102C25.4842 4.8102 24.2234 6.01275 24.2234 7.33163C24.2234 8.99948 25.6805 9.73672 29.147 11.0556C33.8343 12.7627 36 15.1678 36 18.8918C36 23.276 32.6134 27 25.3262 27C22.2939 27 19.2999 26.1857 17.8029 25.3699L19.0238 20.5219Z" fill="#15131D"/>
</svg>
