<svg width="26" height="26" viewBox="0 0 26 26" fill="none" xmlns="http://www.w3.org/2000/svg">
<g clip-path="url(#clip0_53_1555)">
<path d="M13 10.6827C12.6957 10.6827 12.3944 10.7427 12.1132 10.8591C11.8321 10.9756 11.5766 11.1463 11.3615 11.3615C11.1463 11.5766 10.9756 11.8321 10.8591 12.1132C10.7427 12.3944 10.6828 12.6957 10.6828 13C10.6828 13.3043 10.7427 13.6056 10.8591 13.8868C10.9756 14.1679 11.1463 14.4234 11.3615 14.6385C11.5766 14.8537 11.8321 15.0244 12.1132 15.1409C12.3944 15.2573 12.6957 15.3172 13 15.3172C13.3043 15.3172 13.6056 15.2573 13.8868 15.1409C14.1679 15.0244 14.4234 14.8537 14.6385 14.6385C14.8537 14.4234 15.0244 14.1679 15.1409 13.8868C15.2573 13.6056 15.3173 13.3043 15.3173 13C15.3173 12.6957 15.2573 12.3944 15.1409 12.1132C15.0244 11.8321 14.8537 11.5766 14.6385 11.3615C14.4234 11.1463 14.1679 10.9756 13.8868 10.8591C13.6056 10.7427 13.3043 10.6827 13 10.6827ZM6.50867 17.6096L5.99733 17.4796C2.18617 16.5165 0 14.8817 0 12.9957C0 11.1096 2.18617 9.47483 5.99733 8.51175L6.50867 8.38283L6.65275 8.88983C7.03883 10.2199 7.53266 11.5162 8.12933 12.766L8.23875 12.9967L8.12933 13.2275C7.53166 14.4769 7.0378 15.7733 6.65275 17.1037L6.50867 17.6096ZM5.76008 9.69583C2.86325 10.5094 1.0855 11.7542 1.0855 12.9957C1.0855 14.2361 2.86325 15.4808 5.76008 16.2955C6.11436 15.1688 6.54211 14.0664 7.04058 12.9957C6.54154 11.9251 6.11377 10.8228 5.76008 9.69583ZM19.4913 17.6096L19.3472 17.1015C18.9616 15.7715 18.4673 14.4755 17.8696 13.2264L17.7602 12.9957L17.8696 12.7649C18.4671 11.5154 18.9613 10.219 19.3472 8.88875L19.4913 8.38175L20.0038 8.51066C23.8138 9.47375 26 11.1085 26 12.9957C26 14.8828 23.8138 16.5165 20.0038 17.4796L19.4913 17.6096ZM18.9594 12.9957C19.4794 14.1212 19.9095 15.2273 20.2399 16.2955C23.1378 15.4808 24.9145 14.2361 24.9145 12.9957C24.9145 11.7542 23.1368 10.5105 20.2399 9.69583C19.8861 10.8227 19.4584 11.9251 18.9594 12.9957ZM5.7525 9.69041L5.60842 9.1845C4.537 5.408 4.862 2.70183 6.5 1.75716C8.10658 0.82983 10.686 1.92508 13.3889 4.6995L13.7573 5.07758L13.3889 5.45566C12.4285 6.45407 11.551 7.52904 10.7651 8.66991L10.6188 8.879L10.3643 8.90066C8.98182 9.00964 7.61051 9.23065 6.26383 9.5615L5.7525 9.69041ZM7.8065 2.50791C7.51617 2.50791 7.25942 2.57075 7.04275 2.69533C5.96592 3.31608 5.77525 5.47408 6.51733 8.38608C7.67177 8.12926 8.84172 7.94795 10.0197 7.84333C10.6995 6.87687 11.4421 5.95621 12.2428 5.08733C10.5528 3.44175 8.95267 2.50791 7.8065 2.50791ZM18.1946 24.5667C18.1935 24.5667 18.1935 24.5667 18.1946 24.5667C16.6508 24.5667 14.6683 23.4043 12.6111 21.2918L12.2428 20.9137L12.6111 20.5357C13.5713 19.5369 14.4484 18.4616 15.2338 17.3203L15.3801 17.1112L15.6336 17.0896C17.0167 16.9812 18.3888 16.7606 19.7362 16.4298L20.2475 16.3009L20.3927 16.8079C21.4619 20.5822 21.138 23.2895 19.5 24.2331C19.1021 24.458 18.6516 24.5732 18.1946 24.5667ZM13.7573 20.904C15.4473 22.5496 17.0473 23.4834 18.1935 23.4834C18.4828 23.4834 18.7417 23.4206 18.9573 23.296C20.0341 22.6752 20.2258 20.5162 19.4827 17.6042C18.3279 17.8613 17.1576 18.0426 15.9792 18.1469C15.3003 19.114 14.558 20.0351 13.7573 20.904ZM20.2475 9.69041L19.7362 9.5615C18.389 9.22969 17.0168 9.00868 15.6336 8.90066L15.3801 8.879L15.2338 8.66991C14.4488 7.52868 13.5716 6.45367 12.6111 5.45566L12.2428 5.07758L12.6111 4.6995C15.3129 1.92616 17.8913 0.830914 19.5 1.75716C21.138 2.70183 21.463 5.408 20.3927 9.18341L20.2475 9.69041ZM15.9792 7.84333C17.2163 7.956 18.3917 8.13908 19.4827 8.38608C20.2258 5.47408 20.0341 3.31608 18.9573 2.69533C17.8869 2.07675 15.8752 3.02466 13.7573 5.08733C14.5576 5.95625 15.2998 6.87691 15.9792 7.84333ZM7.8065 24.5667C7.34911 24.5734 6.89819 24.4582 6.5 24.2331C4.862 23.2895 4.537 20.5833 5.60842 16.8079L5.75142 16.3009L6.26275 16.4298C7.514 16.7451 8.89417 16.9672 10.3632 17.0896L10.6178 17.1112L10.7629 17.3203C11.5489 18.4614 12.4264 19.5368 13.3868 20.5357L13.7551 20.9137L13.3868 21.2918C11.3306 23.4043 9.34808 24.5667 7.8065 24.5667ZM6.51733 17.6042C5.77417 20.5162 5.96592 22.6752 7.04275 23.296C8.112 23.9059 10.1227 22.9656 12.2428 20.904C11.4424 20.0345 10.6998 19.1135 10.0197 18.1469C8.84167 18.0427 7.67169 17.8614 6.51733 17.6042ZM13 18.2845C12.1084 18.2845 11.1919 18.2455 10.2743 18.1697L10.0197 18.148L9.8735 17.9389C9.35449 17.1931 8.86657 16.4262 8.411 15.6401C7.95678 14.8533 7.53537 14.0481 7.14783 13.2264L7.04058 12.9957L7.14783 12.7649C7.53531 11.9432 7.95673 11.138 8.411 10.3512C8.8595 9.57558 9.35242 8.80208 9.8735 8.05241L10.0197 7.84333L10.2743 7.82166C12.0886 7.66783 13.9125 7.66783 15.7268 7.82166L15.9803 7.84333L16.1254 8.05241C17.1645 9.54423 18.0766 11.1206 18.8522 12.7649L18.9616 12.9957L18.8522 13.2264C18.0785 14.8717 17.1663 16.4482 16.1254 17.9389L15.9803 18.148L15.7268 18.1697C14.8092 18.2455 13.8916 18.2845 13 18.2845ZM10.6199 17.1102C12.2233 17.2304 13.7768 17.2304 15.3812 17.1102C16.2769 15.8007 17.0722 14.4253 17.7602 12.9957C17.0734 11.5652 16.2777 10.1897 15.3801 8.88116C13.7956 8.76091 12.2044 8.76091 10.6199 8.88116C9.72192 10.1894 8.9262 11.565 8.23983 12.9957C8.92857 14.4251 9.72419 15.8005 10.6199 17.1102Z" fill="#52C1DE"/>
</g>
<defs>
<clipPath id="clip0_53_1555">
<rect width="26" height="26" fill="white"/>
</clipPath>
</defs>
</svg>
