<svg width="37" height="37" viewBox="0 0 37 37" fill="none" xmlns="http://www.w3.org/2000/svg">
<path d="M29.6262 5.07058e-07H27.2502C20.0289 -0.00139199 13.1025 2.86535 7.99282 7.9703C2.88317 13.0752 0.00832994 20.0008 7.42388e-06 27.2251V29.5969C-0.00136806 30.5677 0.188406 31.5293 0.558495 32.4267C0.928583 33.3242 1.47174 34.1399 2.15695 34.8273C2.84216 35.5148 3.656 36.0605 4.55202 36.4333C5.44803 36.8061 6.40867 36.9986 7.37907 37H29.6157C31.5732 37 33.4507 36.2224 34.8353 34.8381C36.22 33.4538 36.9986 31.5762 37 29.6178V7.37696C36.9986 5.4209 36.2213 3.54534 34.8387 2.16219C33.4562 0.779046 31.5814 0.0013873 29.6262 5.07058e-07ZM30.5577 19.8953C30.5577 27.6283 26.8054 32.0628 20.2741 32.0628C13.9941 32.0628 9.65559 27.6911 9.65559 21.4346C9.65559 16.2723 12.2304 16.2723 13.0782 16.2723C15.36 16.2723 16.6683 17.623 16.6683 19.9738V20.4188C16.6354 20.7669 16.6215 21.1164 16.6265 21.466C16.6265 24.9686 19.1803 25.3456 20.2898 25.3456C23.6078 25.3456 23.6078 22.2042 23.6078 20.5288V9.71728C23.6078 5.14136 25.3819 4.75916 27.2031 4.75916C28.9092 4.75916 30.5786 5.1466 30.5786 9.72251L30.5577 19.8953Z" fill="#EA0029"/>
</svg>
